{
  "accessors": [
    {
      "bufferView": 2,
      "componentType": 5126,
      "count": 18090,
      "max": [
        25.61182975769043,
        14.632760047912598,
        146.75323486328125
      ],
      "min": [
        -26.886547088623047,
        -33.70912551879883,
        -0.034067075699567795
      ],
      "type": "VEC3"
    },
    {
      "bufferView": 2,
      "byteOffset": 217080,
      "componentType": 5126,
      "count": 18090,
      "max": [
        0.9999983906745911,
        1.0,
        1.0
      ],
      "min": [
        -0.9999983906745911,
        -1.0,
        -1.0
      ],
      "type": "VEC3"
    },
    {
      "bufferView": 1,
      "componentType": 5126,
      "count": 18090,
      "max": [
        2.4388630390167236,
        2.344985008239746
      ],
      "min": [
        -1.4294970035552979,
        -1.329421043395996
      ],
      "type": "VEC2"
    },
    {
      "bufferView": 0,
      "componentType": 5125,
      "count": 79728,
      "type": "SCALAR"
    },
    {
      "bufferView": 2,
      "byteOffset": 434160,
      "componentType": 5126,
      "count": 8212,
      "max": [
        13.856539726257324,
        9.490348815917969,
        119.04309844970703
      ],
      "min": [
        -19.35780143737793,
        -25.115144729614258,
        6.614119529724121
      ],
      "type": "VEC3"
    },
    {
      "bufferView": 2,
      "byteOffset": 532704,
      "componentType": 5126,
      "count": 8212,
      "max": [
        1.0,
        0.9661785364151001,
        1.0
      ],
      "min": [
        -1.0,
        -0.999833881855011,
        -0.9999935030937195
      ],
      "type": "VEC3"
    },
    {
      "bufferView": 1,
      "byteOffset": 144720,
      "componentType": 5126,
      "count": 8212,
      "max": [
        1.0,
        1.0
      ],
      "min": [
        0.0,
        0.0
      ],
      "type": "VEC2"
    },
    {
      "bufferView": 0,
      "byteOffset": 318912,
      "componentType": 5125,
      "count": 16872,
      "type": "SCALAR"
    },
    {
      "bufferView": 2,
      "byteOffset": 631248,
      "componentType": 5126,
      "count": 6111,
      "max": [
        21.607009887695313,
        4.256303787231445,
        144.0889434814453
      ],
      "min": [
        -21.613670349121094,
        -31.326168060302734,
        -1.2920876741409302
      ],
      "type": "VEC3"
    },
    {
      "bufferView": 2,
      "byteOffset": 704580,
      "componentType": 5126,
      "count": 6111,
      "max": [
        0.999956488609314,
        0.9997995495796204,
        0.9999988675117493
      ],
      "min": [
        -0.999956488609314,
        -1.0,
        -0.9999815821647644
      ],
      "type": "VEC3"
    },
    {
      "bufferView": 1,
      "byteOffset": 210416,
      "componentType": 5126,
      "count": 6111,
      "max": [
        1.543431043624878,
        1.7179210186004639
      ],
      "min": [
        -1.3732630014419556,
        -0.5565267205238342
      ],
      "type": "VEC2"
    },
    {
      "bufferView": 0,
      "byteOffset": 386400,
      "componentType": 5125,
      "count": 26016,
      "type": "SCALAR"
    },
    {
      "bufferView": 2,
      "byteOffset": 777912,
      "componentType": 5126,
      "count": 8896,
      "max": [
        22.485794067382813,
        3.450765609741211,
        135.86712646484375
      ],
      "min": [
        -24.093204498291016,
        -25.322193145751953,
        6.256834983825684
      ],
      "type": "VEC3"
    },
    {
      "bufferView": 2,
      "byteOffset": 884664,
      "componentType": 5126,
      "count": 8896,
      "max": [
        1.0,
        1.0,
        1.0
      ],
      "min": [
        -1.0,
        -1.0,
        -1.0
      ],
      "type": "VEC3"
    },
    {
      "bufferView": 1,
      "byteOffset": 259304,
      "componentType": 5126,
      "count": 8896,
      "max": [
        1.0,
        1.0
      ],
      "min": [
        0.0,
        0.0
      ],
      "type": "VEC2"
    },
    {
      "bufferView": 0,
      "byteOffset": 490464,
      "componentType": 5125,
      "count": 13542,
      "type": "SCALAR"
    },
    {
      "bufferView": 2,
      "byteOffset": 991416,
      "componentType": 5126,
      "count": 1641,
      "max": [
        10.09943962097168,
        9.145092010498047,
        104.13130950927734
      ],
      "min": [
        -10.09943962097168,
        -15.105192184448242,
        83.57057189941406
      ],
      "type": "VEC3"
    },
    {
      "bufferView": 2,
      "byteOffset": 1011108,
      "componentType": 5126,
      "count": 1641,
      "max": [
        1.0,
        0.9991120100021362,
        0.9993999004364014
      ],
      "min": [
        -1.0,
        -0.9999898076057434,
        -0.9873753190040588
      ],
      "type": "VEC3"
    },
    {
      "bufferView": 1,
      "byteOffset": 330472,
      "componentType": 5126,
      "count": 1641,
      "max": [
        1.0,
        1.0
      ],
      "min": [
        0.0,
        0.0
      ],
      "type": "VEC2"
    },
    {
      "bufferView": 0,
      "byteOffset": 544632,
      "componentType": 5125,
      "count": 4152,
      "type": "SCALAR"
    },
    {
      "bufferView": 2,
      "byteOffset": 1030800,
      "componentType": 5126,
      "count": 264,
      "max": [
        7.113920211791992,
        -4.8927998542785645,
        98.62995147705078
      ],
      "min": [
        -7.113920211791992,
        -14.939833641052246,
        95.95186614990234
      ],
      "type": "VEC3"
    },
    {
      "bufferView": 2,
      "byteOffset": 1033968,
      "componentType": 5126,
      "count": 264,
      "max": [
        1.0,
        1.0,
        0.8989821672439575
      ],
      "min": [
        -1.0,
        -1.0,
        0.0
      ],
      "type": "VEC3"
    },
    {
      "bufferView": 1,
      "byteOffset": 343600,
      "componentType": 5126,
      "count": 264,
      "max": [
        0.0,
        0.0
      ],
      "min": [
        0.0,
        0.0
      ],
      "type": "VEC2"
    },
    {
      "bufferView": 0,
      "byteOffset": 561240,
      "componentType": 5125,
      "count": 1254,
      "type": "SCALAR"
    },
    {
      "bufferView": 2,
      "byteOffset": 1037136,
      "componentType": 5126,
      "count": 146,
      "max": [
        6.945788860321045,
        -5.350727558135986,
        111.18057250976563
      ],
      "min": [
        -6.945788383483887,
        -8.318669319152832,
        105.2447738647461
      ],
      "type": "VEC3"
    },
    {
      "bufferView": 2,
      "byteOffset": 1038888,
      "componentType": 5126,
      "count": 146,
      "max": [
        1.0,
        0.0,
        1.0
      ],
      "min": [
        -1.0,
        -1.0,
        -1.0
      ],
      "type": "VEC3"
    },
    {
      "bufferView": 1,
      "byteOffset": 345712,
      "componentType": 5126,
      "count": 146,
      "max": [
        0.9054051041603088,
        0.9054051041603088
      ],
      "min": [
        0.09459488838911057,
        0.09459494799375534
      ],
      "type": "VEC2"
    },
    {
      "bufferView": 0,
      "byteOffset": 566256,
      "componentType": 5125,
      "count": 792,
      "type": "SCALAR"
    },
    {
      "bufferView": 2,
      "byteOffset": 1040640,
      "componentType": 5126,
      "count": 146,
      "max": [
        6.945788860321045,
        -2.3828678131103516,
        111.18057250976563
      ],
      "min": [
        -6.945788383483887,
        -5.35081148147583,
        105.2447738647461
      ],
      "type": "VEC3"
    },
    {
      "bufferView": 2,
      "byteOffset": 1042392,
      "componentType": 5126,
      "count": 146,
      "max": [
        1.0,
        1.0,
        1.0
      ],
      "min": [
        -1.0,
        0.0,
        -1.0
      ],
      "type": "VEC3"
    },
    {
      "bufferView": 1,
      "byteOffset": 346880,
      "componentType": 5126,
      "count": 146,
      "max": [
        1.0,
        1.0
      ],
      "min": [
        0.0,
        0.0
      ],
      "type": "VEC2"
    },
    {
      "bufferView": 0,
      "byteOffset": 569424,
      "componentType": 5125,
      "count": 792,
      "type": "SCALAR"
    },
    {
      "bufferView": 2,
      "byteOffset": 1044144,
      "componentType": 5126,
      "count": 6366,
      "max": [
        22.164236068725586,
        2.875640869140625,
        134.9557342529297
      ],
      "min": [
        -23.63292121887207,
        -23.76755142211914,
        8.332497596740723
      ],
      "type": "VEC3"
    },
    {
      "bufferView": 2,
      "byteOffset": 1120536,
      "componentType": 5126,
      "count": 6366,
      "max": [
        1.0,
        1.0,
        1.0
      ],
      "min": [
        -1.0,
        -1.0,
        -1.0
      ],
      "type": "VEC3"
    },
    {
      "bufferView": 1,
      "byteOffset": 348048,
      "componentType": 5126,
      "count": 6366,
      "max": [
        1.0,
        1.0
      ],
      "min": [
        0.0,
        0.0
      ],
      "type": "VEC2"
    },
    {
      "bufferView": 0,
      "byteOffset": 572592,
      "componentType": 5125,
      "count": 8718,
      "type": "SCALAR"
    }
  ],
  "asset": {
    "extras": {
      "author": "Springtrap._.1987._. (https://sketchfab.com/Springtrap._.1987._.)",
      "license": "CC-BY-4.0 (http://creativecommons.org/licenses/by/4.0/)",
      "source": "https://sketchfab.com/3d-models/code-bonnie-74eef9e3b2b64ac891492c007a7461b5",
      "title": "CoDe BoNnIe"
    },
    "generator": "Sketchfab-12.68.0",
    "version": "2.0"
  },
  "bufferViews": [
    {
      "buffer": 0,
      "byteLength": 607464,
      "name": "floatBufferViews",
      "target": 34963
    },
    {
      "buffer": 0,
      "byteLength": 398976,
      "byteOffset": 607464,
      "byteStride": 8,
      "name": "floatBufferViews",
      "target": 34962
    },
    {
      "buffer": 0,
      "byteLength": 1196928,
      "byteOffset": 1006440,
      "byteStride": 12,
      "name": "floatBufferViews",
      "target": 34962
    }
  ],
  "buffers": [
    {
      "byteLength": 2203368,
      "uri": "scene.bin"
    }
  ],
  "extensionsRequired": [
    "KHR_materials_pbrSpecularGlossiness"
  ],
  "extensionsUsed": [
    "KHR_materials_pbrSpecularGlossiness"
  ],
  "images": [
    {
      "uri": "textures/Bonnie_1_diffuse.jpeg"
    }
  ],
  "materials": [
    {
      "doubleSided": true,
      "emissiveFactor": [
        1.0,
        1.0,
        1.0
      ],
      "emissiveTexture": {
        "index": 0
      },
      "extensions": {
        "KHR_materials_pbrSpecularGlossiness": {
          "diffuseFactor": [
            1.0,
            1.0,
            1.0,
            1.0
          ],
          "diffuseTexture": {
            "index": 0
          },
          "glossinessFactor": 0.0,
          "specularFactor": [
            0.0,
            0.0,
            0.0
          ]
        }
      },
      "name": "Bonnie_1"
    },
    {
      "doubleSided": true,
      "extensions": {
        "KHR_materials_pbrSpecularGlossiness": {
          "diffuseFactor": [
            0.0,
            0.0,
            0.0,
            1.0
          ],
          "glossinessFactor": 0.005314934207047423,
          "specularFactor": [
            0.0,
            0.0,
            0.0
          ]
        }
      },
      "name": "Dark"
    },
    {
      "doubleSided": true,
      "emissiveFactor": [
        1.0,
        1.0,
        1.0
      ],
      "emissiveTexture": {
        "index": 0
      },
      "extensions": {
        "KHR_materials_pbrSpecularGlossiness": {
          "diffuseFactor": [
            0.0046469190529400605,
            0.0046469190529400605,
            0.0046469190529400605,
            1.0
          ],
          "glossinessFactor": 0.0,
          "specularFactor": [
            0.0,
            0.0,
            0.0
          ]
        }
      },
      "name": "Bonnie_2"
    },
    {
      "doubleSided": true,
      "emissiveFactor": [
        1.0,
        1.0,
        1.0
      ],
      "extensions": {
        "KHR_materials_pbrSpecularGlossiness": {
          "diffuseFactor": [
            1.0,
            1.0,
            1.0,
            1.0
          ],
          "glossinessFactor": 0.0,
          "specularFactor": [
            0.0,
            0.0,
            0.0
          ]
        }
      },
      "name": "Endo_2"
    },
    {
      "doubleSided": true,
      "emissiveFactor": [
        1.0,
        0.0,
        0.0
      ],
      "extensions": {
        "KHR_materials_pbrSpecularGlossiness": {
          "diffuseFactor": [
            1.0,
            1.0,
            1.0,
            1.0
          ],
          "diffuseTexture": {
            "index": 0
          },
          "glossinessFactor": 1.0,
          "specularFactor": [
            0.0,
            0.0,
            0.0
          ]
        }
      },
      "name": "material"
    },
    {
      "doubleSided": true,
      "emissiveFactor": [
        1.0,
        1.0,
        1.0
      ],
      "extensions": {
        "KHR_materials_pbrSpecularGlossiness": {
          "diffuseFactor": [
            1.0,
            1.0,
            1.0,
            1.0
          ],
          "glossinessFactor": 0.005314934207047423,
          "specularFactor": [
            0.0,
            0.0,
            0.0
          ]
        }
      },
      "name": "Teeth"
    },
    {
      "doubleSided": true,
      "emissiveFactor": [
        0.02739801090440855,
        1.0,
        0.0
      ],
      "extensions": {
        "KHR_materials_pbrSpecularGlossiness": {
          "diffuseFactor": [
            1.0,
            1.0,
            1.0,
            1.0
          ],
          "glossinessFactor": 1.0,
          "specularFactor": [
            0.0,
            0.0,
            0.0
          ]
        }
      },
      "name": "Eye_B"
    },
    {
      "doubleSided": true,
      "extensions": {
        "KHR_materials_pbrSpecularGlossiness": {
          "diffuseFactor": [
            0.8,
            0.8,
            0.8,
            1.0
          ],
          "glossinessFactor": 0.005314934207047423,
          "specularFactor": [
            0.0,
            0.0,
            0.0
          ]
        }
      },
      "name": "Eye_back"
    },
    {
      "doubleSided": true,
      "emissiveFactor": [
        1.0,
        0.0,
        0.0
      ],
      "extensions": {
        "KHR_materials_pbrSpecularGlossiness": {
          "diffuseFactor": [
            1.0,
            0.0,
            0.0,
            1.0
          ],
          "glossinessFactor": 0.0,
          "specularFactor": [
            0.0,
            0.0,
            0.0
          ]
        }
      },
      "name": "Endo_1"
    }
  ],
  "meshes": [
    {
      "name": "Cube_116_Bonnie_1_0",
      "primitives": [
        {
          "attributes": {
            "NORMAL": 1,
            "POSITION": 0,
            "TEXCOORD_0": 2
          },
          "indices": 3,
          "material": 0,
          "mode": 4
        }
      ]
    },
    {
      "name": "Cube_116_Dark_0",
      "primitives": [
        {
          "attributes": {
            "NORMAL": 5,
            "POSITION": 4,
            "TEXCOORD_0": 6
          },
          "indices": 7,
          "material": 1,
          "mode": 4
        }
      ]
    },
    {
      "name": "Cube_116_Bonnie_2_0",
      "primitives": [
        {
          "attributes": {
            "NORMAL": 9,
            "POSITION": 8,
            "TEXCOORD_0": 10
          },
          "indices": 11,
          "material": 2,
          "mode": 4
        }
      ]
    },
    {
      "name": "Cube_116_Endo_2_0",
      "primitives": [
        {
          "attributes": {
            "NORMAL": 13,
            "POSITION": 12,
            "TEXCOORD_0": 14
          },
          "indices": 15,
          "material": 3,
          "mode": 4
        }
      ]
    },
    {
      "name": "Cube_116_Red_0",
      "primitives": [
        {
          "attributes": {
            "NORMAL": 17,
            "POSITION": 16,
            "TEXCOORD_0": 18
          },
          "indices": 19,
          "material": 4,
          "mode": 4
        }
      ]
    },
    {
      "name": "Cube_116_Teeth_0",
      "primitives": [
        {
          "attributes": {
            "NORMAL": 21,
            "POSITION": 20,
            "TEXCOORD_0": 22
          },
          "indices": 23,
          "material": 5,
          "mode": 4
        }
      ]
    },
    {
      "name": "Cube_116_Eye_B_0",
      "primitives": [
        {
          "attributes": {
            "NORMAL": 25,
            "POSITION": 24,
            "TEXCOORD_0": 26
          },
          "indices": 27,
          "material": 6,
          "mode": 4
        }
      ]
    },
    {
      "name": "Cube_116_Eye_back_0",
      "primitives": [
        {
          "attributes": {
            "NORMAL": 29,
            "POSITION": 28,
            "TEXCOORD_0": 30
          },
          "indices": 31,
          "material": 7,
          "mode": 4
        }
      ]
    },
    {
      "name": "Cube_116_Endo_1_0",
      "primitives": [
        {
          "attributes": {
            "NORMAL": 33,
            "POSITION": 32,
            "TEXCOORD_0": 34
          },
          "indices": 35,
          "material": 8,
          "mode": 4
        }
      ]
    }
  ],
  "nodes": [
    {
      "children": [
        1
      ],
      "matrix": [
        1.0,
        0.0,
        0.0,
        0.0,
        0.0,
        2.220446049250313e-16,
        -1.0,
        0.0,
        0.0,
        1.0,
        2.220446049250313e-16,
        0.0,
        0.0,
        0.0,
        0.0,
        1.0
      ],
      "name": "Sketchfab_model"
    },
    {
      "children": [
        2
      ],
      "matrix": [
        1.0,
        0.0,
        0.0,
        0.0,
        0.0,
        0.0,
        1.0,
        0.0,
        0.0,
        -1.0,
        0.0,
        0.0,
        0.0,
        0.0,
        0.0,
        1.0
      ],
      "name": "ae9b0abdc168425bbcad5aa4c6b7c516.fbx"
    },
    {
      "children": [
        3,
        5
      ],
      "name": "RootNode"
    },
    {
      "children": [
        4
      ],
      "matrix": [
        2.220446049250313e-16,
        0.0,
        -1.0,
        0.0,
        0.0,
        1.0,
        0.0,
        0.0,
        1.0,
        0.0,
        2.220446049250313e-16,
        0.0,
        4.8024001121521,
        115.73699951171875,
        49505.2890625,
        1.0
      ],
      "name": "Camera_Front1"
    },
    {
      "name": "Object_4"
    },
    {
      "children": [
        6
      ],
      "name": "Bonnie"
    },
    {
      "children": [
        7,
        8,
        9,
        10,
        11,
        12,
        13,
        14,
        15
      ],
      "matrix": [
        1.0,
        0.0,
        0.0,
        0.0,
        0.0,
        2.220446049250313e-16,
        -1.0,
        0.0,
        0.0,
        1.0,
        2.220446049250313e-16,
        0.0,
        0.0,
        0.0,
        0.0,
        1.0
      ],
      "name": "Cube_116"
    },
    {
      "mesh": 0,
      "name": "Cube_116_Bonnie_1_0"
    },
    {
      "mesh": 1,
      "name": "Cube_116_Dark_0"
    },
    {
      "mesh": 2,
      "name": "Cube_116_Bonnie_2_0"
    },
    {
      "mesh": 3,
      "name": "Cube_116_Endo_2_0"
    },
    {
      "mesh": 4,
      "name": "Cube_116_Red_0"
    },
    {
      "mesh": 5,
      "name": "Cube_116_Teeth_0"
    },
    {
      "mesh": 6,
      "name": "Cube_116_Eye_B_0"
    },
    {
      "mesh": 7,
      "name": "Cube_116_Eye_back_0"
    },
    {
      "mesh": 8,
      "name": "Cube_116_Endo_1_0"
    }
  ],
  "samplers": [
    {
      "magFilter": 9729,
      "minFilter": 9987,
      "wrapS": 10497,
      "wrapT": 10497
    }
  ],
  "scene": 0,
  "scenes": [
    {
      "name": "Sketchfab_Scene",
      "nodes": [
        0
      ]
    }
  ],
  "textures": [
    {
      "sampler": 0,
      "source": 0
    }
  ]
}
